<svg xmlns="http://www.w3.org/2000/svg" version="1.1" xmlns:xlink="http://www.w3.org/1999/xlink" xmlns:svgjs="http://svgjs.dev/svgjs" width="1000" height="1000" viewBox="0 0 1000 1000"><rect width="1000" height="1000" fill="#ffffff"></rect><g transform="matrix(0.7,0,0,0.7,149.57576403350913,398.15900537162133)"><svg viewBox="0 0 396 115" data-background-color="#ffffff" preserveAspectRatio="xMidYMid meet" height="290" width="1000" xmlns="http://www.w3.org/2000/svg" xmlns:xlink="http://www.w3.org/1999/xlink"><g id="tight-bounds" transform="matrix(1,0,0,1,0.23999637529863094,0.19317462919968875)"><svg viewBox="0 0 395.52 114.61364906464902" height="114.61364906464902" width="395.52"><g><svg viewBox="0 0 395.52 114.61364906464902" height="114.61364906464902" width="395.52"><g transform="matrix(1,0,0,1,0,70.83583319350967)"><svg viewBox="0 0 395.52 43.77781587113935" height="43.77781587113935" width="395.52"><g><svg viewBox="0 0 395.52 43.77781587113935" height="43.77781587113935" width="395.52"><g><svg viewBox="0 0 395.52 43.77781587113935" height="43.77781587113935" width="395.52"><g transform="matrix(1,0,0,1,0,0)"><svg width="395.52" viewBox="0.8500000238418579 -36.060001373291016 330.3999938964844 36.56999969482422" height="43.77781587113935" data-palette-color="#8abe53"><path d="M18.43 0.51L18.43 0.51Q13.35 0.51 9.38-1.54 5.4-3.59 3.13-7.48 0.85-11.38 0.85-16.94L0.85-16.94 0.85-18.58Q0.85-23.71 2.94-27.65 5.03-31.59 8.9-33.83 12.77-36.06 18.09-36.06L18.09-36.06Q21.8-36.06 25.16-35.07 28.52-34.08 31.4-31.69L31.4-31.69 31.4-22.53 25.17-22.53 24.32-27.78Q23.49-28.34 22.57-28.76 21.66-29.17 20.62-29.39 19.58-29.61 18.38-29.61L18.38-29.61Q15.67-29.61 13.65-28.32 11.62-27.03 10.51-24.57 9.4-22.12 9.4-18.63L9.4-18.63 9.4-16.94Q9.4-13.67 10.55-11.19 11.69-8.72 13.76-7.32 15.82-5.93 18.53-5.93L18.53-5.93Q19.97-5.93 21.46-6.24 22.95-6.54 24.34-7.06L24.34-7.06 25.2-12.08 31.45-12.08 31.45-3.13Q29.32-1.66 26.03-0.57 22.73 0.51 18.43 0.51ZM61.13 0L33.69 0 33.69-5 37.38-5.79 37.38-29.74 33.69-30.52 33.69-35.55 37.38-35.55 45.94-35.55 50.44-35.55 50.44-30.52 45.94-29.74 45.94-6.57 54.39-6.57 54.59-11.52 61.13-11.52 61.13 0ZM78.75 0L62.84 0 62.84-5 66.52-5.79 66.52-29.74 62.84-30.52 62.84-35.55 78.75-35.55 78.75-30.52 75.07-29.74 75.07-5.79 78.75-5 78.75 0ZM96.45 0L80.51 0 80.51-5 84.17-5.79 84.17-29.74 80.51-30.52 80.51-35.55 84.17-35.55 97.28-35.55 105.88-12.13 106.02-12.13 114.37-35.55 130.95-35.55 130.95-30.52 127.26-29.74 127.26-5.79 130.95-5 130.95 0 115.03 0 115.03-5 118.86-5.79 118.86-10.42 119.06-27.15 118.91-27.17 108.85 0 102.12 0 91.91-26.86 91.74-26.83 92.33-11.6 92.33-5.79 96.45-5 96.45 0ZM150.31 0L132.41 0 132.41-5 136.1-5.79 136.1-29.74 132.41-30.52 132.41-35.55 136.1-35.55 148.5-35.55Q155.21-35.55 158.97-33.08 162.73-30.62 162.73-25.73L162.73-25.73Q162.73-23.22 161.54-21.23 160.34-19.24 157.85-18.21L157.85-18.21Q159.98-17.75 161.32-16.64 162.66-15.53 163.3-13.95 163.93-12.38 163.93-10.55L163.93-10.55Q163.93-5.32 160.44-2.66 156.95 0 150.31 0L150.31 0ZM144.67-15.14L144.67-6.52 150.31-6.52Q152.85-6.52 154.13-7.52 155.41-8.52 155.41-10.57L155.41-10.57Q155.41-12.11 154.92-13.12 154.43-14.14 153.41-14.64 152.38-15.14 150.72-15.14L150.72-15.14 144.67-15.14ZM144.67-29L144.67-20.8 148.13-20.8Q151.16-20.8 152.66-21.77 154.16-22.73 154.16-24.76L154.16-24.76Q154.16-26.98 152.76-27.99 151.36-29 148.5-29L148.5-29 144.67-29ZM183.85 0.51L183.85 0.51Q179.26 0.51 175.85-0.96 172.45-2.44 170.59-5.3 168.74-8.15 168.74-12.28L168.74-12.28 168.74-29.74 165.08-30.52 165.08-35.55 180.99-35.55 180.99-30.52 177.31-29.74 177.31-12.28Q177.31-10.13 178.06-8.73 178.82-7.32 180.27-6.64 181.73-5.96 183.8-5.96L183.8-5.96Q185.95-5.96 187.4-6.64 188.85-7.32 189.6-8.73 190.34-10.13 190.34-12.28L190.34-12.28 190.34-29.74 186.68-30.52 186.68-35.55 202.6-35.55 202.6-30.52 198.91-29.74 198.91-12.28Q198.91-8.23 197.01-5.36 195.1-2.49 191.72-0.99 188.34 0.51 183.85 0.51ZM219.93 0L203.99 0 203.99-5 207.65-5.79 207.65-29.74 203.99-30.52 203.99-35.55 207.65-35.55 216.37-35.55 230.62-12.79 230.77-12.79 230.77-29.74 226.11-30.52 226.11-35.55 238.36-35.55 242.05-35.55 242.05-30.52 238.36-29.74 238.36 0 229.92 0 215.39-22.27 215.24-22.27 215.24-5.79 219.93-5 219.93 0ZM259.26 0L243.34 0 243.34-5 247.03-5.79 247.03-29.74 243.34-30.52 243.34-35.55 259.26-35.55 259.26-30.52 255.57-29.74 255.57-5.79 259.26-5 259.26 0ZM285.04 0L269.05 0 269.05-5 272.76-5.79 272.76-28.91 267.27-28.91 267.05-25.07 260.58-25.07 260.58-35.55 293.61-35.55 293.61-25.07 287.06-25.07 286.87-28.91 281.33-28.91 281.33-5.79 285.04-5 285.04 0ZM321 0L305.06 0 305.06-5 308.74-5.79 308.74-11.72 298.44-30 294.73-30.52 294.73-35.55 310.11-35.55 310.11-30.52 307.91-30.13 312.79-20.39 313.36-19.14 313.58-19.14 314.16-20.31 319.87-30.13 316.16-30.52 316.16-35.55 331.25-35.55 331.25-30.52 327.49-30 317.29-12.4 317.29-5.79 321-5 321 0Z" opacity="1" transform="matrix(1,0,0,1,0,0)" fill="#8abe53" class="undefined-text-0" data-fill-palette-color="primary" id="text-0"></path></svg></g></svg></g></svg></g></svg></g><g transform="matrix(1,0,0,1,144.38520084704467,0)"><svg viewBox="0 0 106.74959830591062 60.500941533914585" height="60.500941533914585" width="106.74959830591062"><g><svg version="1.1" xmlns="http://www.w3.org/2000/svg" xmlns:xlink="http://www.w3.org/1999/xlink" x="8" y="0" viewBox="0 16.666000366210938 100 66.66799926757812" enable-background="new 0 16.666 100 66.668" xml:space="preserve" width="90.74959830591062" height="60.500941533914585" class="icon-icon-0" data-fill-palette-color="accent" id="icon-0"><path d="M73.334 36.667c0 0-4.854 5.123-8.979 9.479l-17.689-29.48L35 40.001l-10-10L0 83.334h100L73.334 36.667zM26.002 35.717l6.643 6.641 3.27 3.271 2.068-4.137 8.951-17.903 4.477 19.334-3.439 6.024-4.969-4.967-5 8.334-4.85-4.853-5.102 6.802-7.727-6.438L26.002 35.717zM5.242 80.001l13.621-29.056 9.75 8.125 4.9-6.532 5.148 5.149 4.998-8.334 5.035 5.033 3.82-6.686L60 80.001H5.242z" fill="#6b7280" data-fill-palette-color="accent"></path></svg></g></svg></g><g><rect width="144.38520084704467" height="3.947928613965326" y="55.55301291994925" x="251.13479915295528" fill="#6b7280" data-fill-palette-color="accent"></rect><rect width="144.38520084704467" height="3.947928613965326" y="55.55301291994925" x="0" fill="#6b7280" data-fill-palette-color="accent"></rect><rect width="144.38520084704467" height="3.947928613965326" y="47.657155692018605" x="251.13479915295528" fill="#6b7280" data-fill-palette-color="accent"></rect><rect width="144.38520084704467" height="3.947928613965326" y="47.657155692018605" x="0" fill="#6b7280" data-fill-palette-color="accent"></rect></g></svg></g><defs></defs></svg><rect width="395.52" height="114.61364906464902" fill="none" stroke="none" visibility="hidden"></rect></g></svg></g></svg>